~~~~~~~~~~~~~~~~~~~~~~~~~~~~~~~~~~~~~~~~~~~~~~~~~~~~~~~~~~~~~~~~~~~
Title: The Last House on the Left[2009]
~~~~~~~~~~~~~~~~~~~~~~~~~~~~~~~~~~~~~~~~~~~~~~~~~~~~~~~~~~~~~~~~~~~
~~~~~~~~~~~~~~~~~~~~~~~~~~~~~~~~~~~~~~~~~~~~~~~~~~~~~~~~~~~~~~~~~~~
Release Notes

Genre: Crime | Drama | Horror | Thriller

Rated: R for sadistic brutal violence including a rape and 
      disturbing images, language, nudity and some drug use.

Movie Information: http://www.imdb.com/title/tt0844708/

Plot:  After kidnapping and brutally assaulting two young women, a 
      gang led by a prison escapee unknowingly finds refuge at a 
      vacation home belonging the parents of one of the victims -- 
      a mother and father who devise an increasingly gruesome 
      series of revenge tactics.

Format                           : AVI
Format/Info                      : Audio Video Interleave
File size                        : 1.17 GiB
Duration                         : 1h 53mn
Overall bit rate                 : 1 474 Kbps
Movie name                       : The Last House on the Left [Unrated-Rated][2009]DvDRip[Eng]-Uvall
Writing application              : Lavf52.33.0

Video
Format                           : MPEG-4 Visual
Format profile                   : Simple@L3
Format settings, BVOP            : No
Format settings, QPel            : No
Format settings, GMC             : No warppoints
Format settings, Matrix          : Default (H.263)
Codec ID                         : XVID
Codec ID/Hint                    : XviD
Duration                         : 1h 53mn
Bit rate                         : 1 015 Kbps
Width                            : 704 pixels
Height                           : 380 pixels
Display aspect ratio             : 1.853
Frame rate                       : 23.976 fps
Resolution                       : 24 bits
Colorimetry                      : 4:2:0
Scan type                        : Progressive
Bits/(Pixel*Frame)               : 0.158
Stream size                      : 825 MiB (69%)
Writing library                  : XviD 1.2.1 (UTC 2008-12-04)

Audio
Format                           : AC-3
Format/Info                      : Audio Coding 3
Codec ID                         : 2000
Duration                         : 1h 53mn
Bit rate mode                    : Constant
Bit rate                         : 448 Kbps
Channel(s)                       : 6 channels
Channel positions                : Front: L C R, Surround: L R, LFE
Sampling rate                    : 48.0 KHz
Stream size                      : 364 MiB (30%)
Alignment                        : Aligned on interleaves
Interleave, duration             : 32 ms (0.77 video frame)
~~~~~~~~~~~~~~~~~~~~~~~~~~~~~~~~~~~~~~~~~~~~~~~~~~~~~~~~~~~~~~~~~~~
~~~~~~~~~~~~~~~~~~~~~~~~~~~~~~~~~~~~~~~~~~~~~~~~~~~~~~~~~~~~~~~~~~~
Posted By: Uvall
~~~~~~~~~~~~~~~~~~~~~~~~~~~~~~~~~~~~~~~~~~~~~~~~~~~~~~~~~~~~~~~~~~~